<svg width="79" height="78" viewBox="0 0 79 78" fill="none" xmlns="http://www.w3.org/2000/svg">
<path d="M55.44 0H23.56C10.57 0 0 10.32 0 23V43C0 55.68 10.57 66 23.56 66H29.25L34.91 74.62C35.92 76.16 37.64 77.08 39.5 77.08C41.36 77.08 43.08 76.16 44.09 74.62L49.75 66H55.44C68.43 66 79 55.68 79 43V23C79 10.32 68.43 0 55.44 0ZM73 43C73 52.37 65.12 60 55.44 60H46.51L39.5 70.68L32.49 60H23.56C13.88 60 6 52.37 6 43V23C6 13.63 13.88 6 23.56 6H55.43C65.12 6 73 13.63 73 23V43Z" fill="#525252"/>
<path d="M56.5 22H21.5C19.84 22 18.5 23.34 18.5 25C18.5 26.66 19.84 28 21.5 28H56.5C58.16 28 59.5 26.66 59.5 25C59.5 23.34 58.16 22 56.5 22Z" fill="#525252"/>
<path d="M56.5 38H21.5C19.84 38 18.5 39.34 18.5 41C18.5 42.66 19.84 44 21.5 44H56.5C58.16 44 59.5 42.66 59.5 41C59.5 39.34 58.16 38 56.5 38Z" fill="#525252"/>
</svg>
