<svg width="156" height="156" viewBox="0 0 156 156" fill="none" xmlns="http://www.w3.org/2000/svg">
<path d="M77.6364 61.9515L136.339 3.24845C140.671 -1.08282 147.693 -1.08282 152.024 3.24845C156.356 7.57972 156.356 14.6021 152.024 18.9334L93.3213 77.6364L152.024 136.339C156.356 140.671 156.356 147.693 152.024 152.024C147.693 156.356 140.671 156.356 136.339 152.024L77.6364 93.3213L18.9334 152.024C14.6021 156.356 7.57972 156.356 3.24845 152.024C-1.08282 147.693 -1.08282 140.671 3.24845 136.339L61.9515 77.6364L3.24845 18.9334C-1.08282 14.6021 -1.08282 7.57972 3.24845 3.24845C7.57972 -1.08282 14.6021 -1.08282 18.9334 3.24845L77.6364 61.9515Z" fill="#525252"/>
</svg>
